<svg width="235" height="300" viewBox="0 0 235 300" fill="none" xmlns="http://www.w3.org/2000/svg">
<g clip-path="url(#clip0_316_1674)">
<path d="M106.175 252.112C109.312 285.405 87.9308 326.306 64.0604 346.757C47.4896 360.509 28.6443 344.143 13.2919 334.479C2.47309 327.221 31.7032 313.746 46.9353 321.036C45.7658 320.478 44.4494 320.306 43.1757 320.544C43.1286 320.544 43.6515 320.267 44.2894 319.728C57.362 306.53 64.3479 285.886 67.5271 267.056C68.2749 261.629 68.5992 255.636 67.6423 250.548C63.7571 227.614 103.309 228.963 106.175 252.117" fill="#242363"/>
<path d="M211.163 154.622C208.293 157.791 205.312 160.839 202.311 163.762C194.776 171.083 187.147 177.614 180.872 183.167C174.482 188.835 169.546 193.5 167.648 196.977L159.788 211.472C159.788 211.472 128.895 195.984 105.809 168.045C98.2793 158.936 91.581 148.488 87.0579 136.833C68.6727 89.4423 84.4434 63.8254 84.4434 63.8254C84.5309 60.771 84.1463 57.7215 83.3033 54.7844C79.5907 41.4975 67.7105 29.8002 59.3231 22.8874C56.5054 20.546 53.5642 18.3571 50.5122 16.3302C50.5122 16.3302 80.9348 6.70364 96.2035 14.5472C101.558 17.2872 105.067 22.1502 104.769 30.3127C104.674 32.9638 107.561 23.7555 106.735 13.5066C106.379 9.2188 105.386 4.748 103.242 0.894213C102.023 -1.29674 114.746 -0.151594 122.971 13.1458C126.302 18.516 128.895 25.8732 129.528 35.777C129.868 41.0949 137.612 32.6396 135.097 14.0766C134.725 11.3741 134.187 8.69704 133.486 6.06047C131.06 -3.15306 189.123 32.8958 218.296 69.7865C218.313 69.8064 218.328 69.8274 218.343 69.8492C227.708 81.7034 234.082 93.6465 234.495 104.188C235.238 122.898 224.382 140.033 211.163 154.638" fill="#603813"/>
<path d="M96.2033 14.5471C83.6694 16.1238 71.3203 18.926 59.3334 22.9135C56.5173 20.5699 53.5759 18.381 50.5225 16.3563C50.5225 16.3563 80.9346 6.70354 96.2033 14.5471Z" fill="#754C24"/>
<path d="M122.971 13.1353C117.925 12.9837 112.46 13.0987 106.734 13.4909C106.379 9.20311 105.38 4.73229 103.242 0.878508C102.023 -1.31245 114.745 -0.167294 122.971 13.1353Z" fill="#754C24"/>
<path d="M218.295 69.7707C195.622 45.2309 162.157 21.6637 146.742 16.5706C142.947 15.3722 139.048 14.5336 135.097 14.0659C134.724 11.3622 134.188 8.68351 133.491 6.04464C131.065 -3.17412 189.123 32.8799 218.295 69.7707Z" fill="#754C24"/>
<path d="M211.163 154.622C208.293 157.791 205.312 160.839 202.311 163.762C194.776 171.083 187.147 177.614 180.872 183.167C174.482 188.835 169.546 193.5 167.648 196.977L159.788 211.472C159.788 211.472 128.895 195.984 105.809 168.045C158.57 108.272 196.585 112.518 207.252 130.297C211.88 137.999 212.246 146.935 211.158 154.622" fill="#42210B"/>
<path d="M102.128 57.0486C54.0211 77.6457 83.2306 114.045 64.0453 133.8C50.1413 148.138 61.7286 173.405 77.1699 189.991C85.7455 199.215 95.3356 210.986 106.886 211.88C132.305 213.851 164.777 197.238 177.123 177.776C195.618 148.645 189.432 71.5277 144.023 55.1818C122.584 47.4585 102.128 57.0486 102.128 57.0486Z" fill="#FFE1D9"/>
<path d="M145.319 114.568C144.788 114.567 144.265 114.428 143.803 114.165C143.683 114.092 130.961 107.022 118.223 111.09C117.837 111.226 117.427 111.283 117.019 111.258C116.61 111.233 116.211 111.126 115.845 110.944C115.478 110.762 115.152 110.508 114.886 110.197C114.619 109.887 114.418 109.526 114.293 109.136C114.168 108.746 114.123 108.336 114.161 107.928C114.198 107.52 114.316 107.124 114.509 106.764C114.702 106.403 114.965 106.084 115.283 105.827C115.601 105.569 115.968 105.378 116.361 105.265C131.708 100.366 146.229 108.502 146.841 108.847C147.426 109.183 147.883 109.703 148.142 110.326C148.402 110.949 148.448 111.639 148.275 112.291C148.101 112.943 147.718 113.519 147.184 113.931C146.649 114.343 145.994 114.566 145.319 114.568Z" fill="#42210B"/>
<path d="M146.961 135.066C146.616 150.753 113.109 146.099 114.019 133.842C115.2 117.658 147.537 116.283 146.961 135.066Z" fill="white"/>
<path d="M144.206 141.722C145.552 139.14 145.943 136.165 145.31 133.323C144.676 130.48 143.059 127.953 140.744 126.187C140.17 125.753 139.573 125.352 138.956 124.984C138.334 124.602 137.685 124.267 137.031 123.938C135.709 123.316 134.322 122.843 132.895 122.526C129.934 121.873 126.86 121.934 123.928 122.704C125.268 121.829 126.762 121.215 128.331 120.895C129.923 120.544 131.56 120.443 133.183 120.597C134.825 120.754 136.438 121.142 137.973 121.747C138.738 122.046 139.482 122.395 140.2 122.793C140.93 123.186 141.629 123.633 142.292 124.132C143.674 125.145 144.834 126.429 145.703 127.907C146.571 129.384 147.13 131.023 147.343 132.723C147.751 136.064 146.611 139.583 144.242 141.706" fill="#42210B"/>
<path d="M138.919 135.154C136.77 148.593 116.727 145.738 118.421 132.231C120.57 118.798 140.608 121.653 138.919 135.154Z" fill="#A67C52"/>
<path d="M133.748 135.86C132.331 145.524 117.632 143.427 118.965 133.769C120.388 124.106 135.086 126.202 133.748 135.86Z" fill="#2D1508"/>
<g opacity="0.5">
<mask id="mask0_316_1674" style="mask-type:luminance" maskUnits="userSpaceOnUse" x="129" y="125" width="10" height="10">
<path d="M138.574 125.538H129.982V134.135H138.574V125.538Z" fill="white"/>
</mask>
<g mask="url(#mask0_316_1674)">
<path d="M138.558 130.192C138.488 131.039 138.168 131.847 137.639 132.512C137.11 133.178 136.395 133.671 135.586 133.931C134.776 134.19 133.907 134.203 133.09 133.969C132.273 133.735 131.543 133.264 130.994 132.615C130.444 131.966 130.1 131.169 130.004 130.324C129.907 129.479 130.064 128.625 130.453 127.869C130.843 127.113 131.447 126.49 132.191 126.078C132.934 125.666 133.784 125.483 134.631 125.554C135.194 125.6 135.742 125.757 136.244 126.015C136.746 126.273 137.192 126.628 137.556 127.059C137.921 127.489 138.197 127.988 138.369 128.526C138.541 129.063 138.605 129.63 138.558 130.192Z" fill="white"/>
</g>
</g>
<path d="M88.3024 116.1C87.5372 116.101 86.7999 115.813 86.2371 115.295C85.9234 115.012 78.2681 108.214 70.9527 112.398C70.2546 112.743 69.4511 112.809 68.7061 112.582C67.9611 112.355 67.3306 111.853 66.9431 111.178C66.5557 110.502 66.4404 109.704 66.6209 108.947C66.8014 108.189 67.2642 107.529 67.9146 107.101C79.1309 100.685 89.9182 110.385 90.3731 110.803C90.8286 111.221 91.1467 111.767 91.2856 112.369C91.4245 112.972 91.3778 113.602 91.1513 114.177C90.9249 114.752 90.5294 115.246 90.0172 115.592C89.5049 115.938 88.8996 116.12 88.2815 116.115" fill="#42210B"/>
<path d="M62.7691 128.508C62.2462 134.678 66.8425 139.327 73.0494 139.845C79.2562 140.362 86.9169 138.062 87.4241 131.891C87.9313 125.721 81.1491 118.819 74.937 118.296C71.9667 118.041 69.0168 118.975 66.7352 120.894C64.4536 122.813 63.027 125.559 62.7691 128.529" fill="white"/>
<path d="M62.4291 130.349C62.1199 128.121 62.3569 125.851 63.1195 123.734C63.536 122.641 64.1392 121.629 64.9024 120.743C65.6805 119.864 66.5995 119.12 67.6216 118.542C69.6569 117.36 72.043 116.933 74.3619 117.334C75.4786 117.519 76.5608 117.872 77.5723 118.38C78.566 118.867 79.4782 119.506 80.276 120.273C78.4022 119.283 76.3404 118.7 74.2258 118.563C72.2052 118.45 70.1984 118.957 68.4739 120.016C66.7612 121.052 65.3708 122.544 64.4582 124.325C63.4908 126.119 62.9782 128.205 62.4082 130.328" fill="#42210B"/>
<path d="M83.063 131.034C82.7969 132.875 81.9915 134.596 80.7482 135.979C79.5049 137.362 77.8794 138.346 76.0773 138.807C74.2752 139.267 72.3773 139.183 70.6229 138.566C68.8684 137.948 67.336 136.825 66.2195 135.337C65.1031 133.849 64.4525 132.064 64.3498 130.207C64.2471 128.35 64.697 126.504 65.6425 124.902C66.5881 123.301 67.9869 122.015 69.6626 121.208C71.3382 120.401 73.2154 120.108 75.0573 120.367C76.2844 120.539 77.4654 120.952 78.5325 121.582C79.5996 122.212 80.5319 123.047 81.2757 124.038C82.0195 125.029 82.5601 126.157 82.8669 127.358C83.1736 128.558 83.2402 129.808 83.063 131.034Z" fill="#A67C52"/>
<path d="M78.5503 131.614C78.3608 132.965 77.7747 134.229 76.8665 135.246C75.9583 136.263 74.7687 136.988 73.4482 137.329C72.1278 137.67 70.736 137.612 69.4488 137.161C68.1617 136.711 67.0369 135.888 66.2172 134.798C65.3976 133.709 64.9197 132.4 64.8441 131.038C64.7685 129.677 65.0986 128.323 65.7926 127.149C66.4866 125.975 67.5132 125.033 68.7426 124.443C69.972 123.853 71.349 123.641 72.6991 123.834C73.5956 123.96 74.4581 124.263 75.2375 124.724C76.017 125.184 76.6981 125.794 77.2416 126.518C77.785 127.243 78.1802 128.067 78.4048 128.944C78.6294 129.821 78.6789 130.734 78.5503 131.63" fill="#2D1508"/>
<g opacity="0.5">
<mask id="mask1_316_1674" style="mask-type:luminance" maskUnits="userSpaceOnUse" x="73" y="121" width="9" height="10">
<path d="M81.9127 121.627H73.4155V130.124H81.9127V121.627Z" fill="white"/>
</mask>
<g mask="url(#mask1_316_1674)">
<path d="M81.8975 126.223C81.8284 127.06 81.5128 127.858 80.9903 128.516C80.4678 129.173 79.7618 129.661 78.962 129.917C78.1622 130.174 77.3046 130.187 76.4971 129.956C75.6897 129.725 74.9688 129.259 74.426 128.618C73.8831 127.978 73.5425 127.19 73.4473 126.356C73.3521 125.521 73.5066 124.677 73.8911 123.931C74.2755 123.184 74.8728 122.568 75.6073 122.161C76.3419 121.753 77.1806 121.573 78.0176 121.643C79.1389 121.737 80.177 122.273 80.9043 123.131C81.6316 123.99 81.9886 125.102 81.8975 126.223Z" fill="white"/>
</g>
</g>
<path d="M96.6219 137.319C96.4099 138.792 95.8742 140.199 95.0532 141.44C94.1946 142.702 93.0989 143.785 91.827 144.629C90.5825 145.448 89.2641 146.148 87.8894 146.721C87.2253 147.008 86.5718 147.28 85.9548 147.568C85.3662 147.818 84.8023 148.122 84.2709 148.478C83.8529 148.726 83.5152 149.089 83.2984 149.524C83.2096 149.72 83.1547 149.931 83.1363 150.146C83.1206 150.449 83.1206 150.753 83.1363 151.056C83.1884 152.323 83.4906 153.566 84.0253 154.716C84.5824 155.94 85.294 157.088 86.1429 158.131C87.0184 159.235 88.0365 160.217 89.1706 161.054C87.7103 160.722 86.3477 160.054 85.1914 159.103C83.9756 158.169 82.9422 157.018 82.1428 155.71C81.297 154.34 80.7931 152.787 80.6734 151.181C80.6447 150.772 80.6447 150.362 80.6734 149.952C80.7104 149.453 80.8324 148.963 81.0342 148.504C81.4459 147.642 82.0955 146.917 82.9062 146.412C84.2282 145.653 85.6314 145.044 87.0894 144.598C88.4013 144.171 89.6834 143.657 90.9274 143.061C92.1442 142.473 93.257 141.69 94.2219 140.744C95.2072 139.74 96.026 138.586 96.648 137.324" fill="#EDBBAB"/>
<path d="M175.229 163.809C146.747 139.991 203.534 114.97 205.735 134.004C207.937 153.038 183.564 170.764 175.229 163.809Z" fill="#FFE1D9"/>
<path d="M177.065 149.686C176.913 148.06 177.588 146.439 178.325 144.98C179.142 143.561 180.119 142.242 181.238 141.047C183.462 138.641 186.081 136.632 188.982 135.107C190.51 134.28 192.169 133.723 193.887 133.46C194.391 133.406 194.899 133.406 195.403 133.46C196.028 133.545 196.618 133.8 197.108 134.197C197.38 134.413 197.607 134.679 197.777 134.982C197.903 135.214 198.006 135.457 198.086 135.709C198.251 136.178 198.353 136.666 198.389 137.162C198.396 138.964 197.777 140.713 196.637 142.109C195.65 143.406 194.441 144.517 193.066 145.393C193.98 144.139 194.765 142.795 195.408 141.382C196.038 140.164 196.291 138.786 196.135 137.424C196.066 137.145 195.963 136.876 195.827 136.624C195.773 136.508 195.712 136.397 195.644 136.289C195.597 136.289 195.581 136.216 195.529 136.211C195.113 136.072 194.665 136.059 194.242 136.174C192.87 136.491 191.546 136.994 190.31 137.67C187.646 139.083 185.129 140.757 182.796 142.668C181.619 143.625 180.513 144.664 179.486 145.78C178.416 146.885 177.591 148.203 177.065 149.649" fill="#EDBBAB"/>
<path d="M77.2432 77.7815C88.3025 68.453 93.4217 85.8551 93.4217 85.8551C93.4217 85.8551 105.344 70.0897 132.54 71.9094C151.181 73.1539 167.449 86.7702 168.829 115.111C168.913 116.827 166.299 136.347 166.649 138.009C167.203 140.66 174.424 127.175 173.624 129.643C169.242 143.118 169.441 160.646 169.441 160.646C169.441 160.646 181.039 127.734 199.43 123.619C211.205 121.005 196.815 64.594 144.687 48.7657C109.334 38.0306 84.2919 61.3154 84.2919 61.3154L77.2432 77.7815Z" fill="#603813"/>
<path d="M90.028 64.3117L77.2429 77.7817C77.2429 77.7817 70.2621 58.7324 44.2478 61.326C39.5649 61.828 34.9535 62.8558 30.5007 64.3902C28.247 65.1432 29.6641 33.4815 50.303 32.0017C51.4281 31.9477 52.5555 32.032 53.66 32.2526C65.7129 34.4541 90.0646 49.4666 90.028 64.3117Z" fill="#603813"/>
<path d="M53.66 32.2526C47.9552 39.7929 45.2047 54.9152 44.2478 61.326C39.5649 61.828 34.9535 62.8558 30.5007 64.3902C28.247 65.1432 29.6641 33.4815 50.303 32.0017C51.4281 31.9477 52.5555 32.032 53.66 32.2526Z" fill="#754C24"/>
<path d="M183.24 439.326C183.24 439.326 93.5524 460.159 90.1901 432.304C88.8044 420.847 97.1029 387.266 100.648 353.654C103.205 329.266 106.4 303.001 109.255 280.62C113.287 249.001 116.654 225.104 116.654 225.104C119.159 224.445 121.392 221.271 124.702 221.067C128.995 220.795 132.671 219.467 136.99 220.095C144.499 221.182 151.767 224.68 151.767 224.68L158.439 279.062L183.24 439.326Z" fill="#E9CCFF"/>
<path d="M168.082 313.459C154.413 315.2 113.763 319.472 100.627 310.609C103.184 294.069 106.379 276.259 109.234 261.085C122.035 263.746 147.061 261.341 158.419 260.039L168.082 313.459Z" fill="#F2E0FF"/>
<path d="M131.091 232.927C140.451 233.596 145.795 226.432 145.795 222.903V204.141H123.237L122.824 221.177C122.824 224.707 125.397 232.519 131.102 232.927" fill="#FFE1D9"/>
<path d="M122.375 220.889L111.205 489.535C111.205 489.535 93.2124 486.597 81.8027 483.517C76.9345 482.215 65.0698 480.181 65.0698 480.181L68.7301 463.725L72.7722 435.619L79.7895 386.817L72.4688 262.648L71.7368 250.229L71.0778 239.113C71.1406 238.731 81.5097 234.046 84.2392 233.063C92.4488 230.066 108.842 225.313 109.888 224.832C109.996 224.779 110.108 224.734 110.222 224.696L122.375 220.889Z" fill="#242363"/>
<path d="M223.488 482.183C215.884 484.312 208.125 485.842 200.282 486.759C199.999 486.795 199.712 486.832 199.429 486.858L149.958 493.525L146.616 222.05C158.553 223.406 170.39 225.532 182.053 228.414C185.023 229.157 208.287 235.959 208.784 239.107L216.805 255.814L216.345 260.227L202.107 396.182L223.488 482.183Z" fill="#242363"/>
<path d="M223.488 482.183C215.884 484.312 208.125 485.842 200.282 486.759C195.712 462.669 185.641 435.839 184.391 393.829C182.697 337.23 195.372 271.208 216.345 260.227L202.107 396.182L223.488 482.183Z" fill="#1D1D51"/>
<path d="M146.407 220.57C147.453 218.233 168.699 219.587 168.5 224.231C167.914 237.983 153.723 274.121 153.723 274.121L162.503 278.654L148.635 357.403C148.635 357.403 140.305 234.521 146.407 220.57Z" fill="#5857BF"/>
<path d="M122.814 221.177C124.048 238.992 116.889 356.405 116.889 356.405L104.821 276.777L110.745 274.581C110.745 274.581 102.332 231.128 104.088 225.13C105.307 220.947 122.657 218.855 122.814 221.177Z" fill="#5857BF"/>
<path d="M84.7886 388.275C82.9636 408.057 76.8248 424.805 72.7618 435.619L79.7791 386.816L72.4585 262.648C74.3985 269.969 79.6744 282.926 82.1373 304.439C85.5309 334.139 88.4958 347.646 84.7518 388.275" fill="#292972"/>
<path d="M168.019 280.228L173.363 271.543L185.395 284.239L168.019 280.228Z" fill="#E9CCFF"/>
<path d="M166.68 278.895L188.067 282.566L187.397 290.252L164.677 286.242L166.68 278.895Z" fill="#5857BF"/>
<path d="M83.0839 265.472C80.1975 258.078 77.7505 245.602 77.7505 245.602L93.6257 246.851L97.1083 264.975L83.0839 265.472Z" fill="#FFE1D9"/>
<path d="M78.9476 216.601C82.4249 212.972 86.744 210.75 90.5926 211.989C90.2579 207.283 87.978 198.363 88.1558 194.875C88.5636 186.508 99.0112 189.933 99.7799 195.732C100.549 201.531 104.24 215.32 104.141 224.424C106.562 222.332 109.344 220.816 115.838 219.843C121.036 219.07 129.198 228.21 122.244 228.79C116.23 229.271 102.373 238.799 93.4057 243.991C89.2225 247.369 83.073 250.648 78.346 246.365C75.2086 243.536 75.0622 231.964 74.5759 231.237C73.8491 230.129 76.0402 219.639 78.9476 216.601Z" fill="#EDBBAB"/>
<path d="M76.1081 219.42C76.3726 218.922 76.6697 218.441 76.9972 217.982C77.6222 217.079 78.4224 216.311 79.3502 215.723C83.6694 213.15 87.9623 213.323 91.8161 214.562C92.3756 209.485 89.8239 199.921 89.9964 196.454C90.4043 188.088 95.8948 190.791 96.6844 192.48C99.1838 197.798 103.205 217.83 103.105 226.929C105.527 224.837 113.15 221.475 115.875 221.072C121.072 220.309 127.76 228.205 120.806 228.764C114.792 229.245 104.313 242.564 95.3562 247.756C91.173 251.134 83.4026 253.158 78.6703 248.87C76.6676 247.055 72.772 242.145 71.423 234.229C71.2243 233.047 69.9171 231.274 71.2243 227.237C71.8884 225.193 72.5576 225.899 72.589 225.47C72.8557 222.296 73.8753 219.959 76.1081 219.42Z" fill="#FFE1D9"/>
<path d="M75.9565 258.256C75.9565 258.256 78.571 265.577 81.6247 273.995C84.6157 282.215 87.9989 291.492 89.7611 295.994C93.3116 305.082 97.0818 314.112 101.37 323.117C105.657 332.121 110.259 341.084 116.607 350.151C116.795 350.428 116.983 350.674 117.198 350.966C118.631 352.969 120.173 354.967 121.961 357.022C124.189 359.606 126.674 361.957 129.376 364.039C132.409 366.298 136.43 368.886 142.538 369.932C143.327 370.052 144.106 370.131 144.88 370.209C145.654 370.288 146.532 370.209 147.348 370.209C148.971 370.135 150.582 369.891 152.154 369.482C154.592 368.858 156.933 367.905 159.113 366.648C162.257 364.821 165.167 362.617 167.778 360.086C169.917 358.038 171.932 355.864 173.812 353.576C177.203 349.457 180.345 345.141 183.225 340.65C188.638 332.189 193.564 323.426 197.981 314.405C198.88 312.57 199.764 310.745 200.643 308.894C204.015 301.808 207.132 294.613 210.028 287.209C211.853 282.545 213.574 277.797 215.153 272.793C215.943 270.293 216.696 267.736 217.412 264.996C218.204 261.946 218.806 258.85 219.216 255.725L219.284 255.202C220.57 244.964 213.501 235.531 203.508 234.093C193.515 232.655 184.344 239.782 183.073 249.994C183.007 250.432 182.968 250.874 182.958 251.317C182.814 252.881 182.569 254.433 182.226 255.966C181.839 257.832 181.353 259.83 180.809 261.838C180.071 264.562 179.24 267.354 178.356 270.157C177.912 271.517 177.473 272.892 177.013 274.257C174.163 282.623 170.879 290.963 167.308 299.089C163.814 307.099 159.877 314.907 155.516 322.479C153.495 325.962 151.276 329.326 148.87 332.555C147.857 333.921 146.768 335.229 145.607 336.472C145.492 336.608 145.372 336.723 145.267 336.832C143.647 335.257 142.153 333.557 140.796 331.75C136.007 325.506 131.484 317.752 127.295 309.83C124.722 304.93 120.853 297.369 116.743 289.238C112.638 281.101 108.272 272.421 104.716 265.289C100.292 256.431 97.9184 253.837 97.9184 253.837C97.9184 253.837 95.4607 250.7 88.5741 253.403C81.8496 255.934 75.9565 258.256 75.9565 258.256ZM147.777 338.694C147.666 338.668 147.561 338.62 147.469 338.553C147.578 338.584 147.682 338.632 147.777 338.694Z" fill="#242363"/>
<path d="M132.592 330.861C143.05 350.778 152.107 337.847 155.417 333.24C167.313 316.685 171.695 302.138 178.357 270.115C177.912 271.475 177.473 272.85 177.013 274.215C174.163 282.581 170.879 290.921 167.308 299.047C163.814 307.057 159.878 314.865 155.516 322.437C153.495 325.92 151.276 329.284 148.87 332.513C147.857 333.879 146.768 335.187 145.607 336.43C145.492 336.566 145.372 336.681 145.267 336.79C143.647 335.215 142.153 333.515 140.796 331.708C136.007 325.464 131.484 317.71 127.295 309.788C124.723 304.888 116.91 290.216 112.8 282.074C115.221 293.552 125.198 316.847 132.592 330.861Z" fill="#292972"/>
<path d="M81.2065 173.509C93.3954 177.954 105.438 177.98 116.957 173.588L81.2065 173.509Z" fill="#EDBBAB"/>
</g>
<defs>
<clipPath id="clip0_316_1674">
<rect width="234.532" height="769" fill="white"/>
</clipPath>
</defs>
</svg>
