<svg width="228" height="329" viewBox="0 0 228 329" fill="none" xmlns="http://www.w3.org/2000/svg">
<path d="M223 425C218.327 377.561 196.785 271.747 148 228" stroke="#AFE881" stroke-width="10"/>
<path fill-rule="evenodd" clip-rule="evenodd" d="M84.1468 183.149C83.3634 183.927 83.3595 185.194 84.1382 185.977L93.4526 195.348L91.9171 196.874C88 200.768 87.9808 207.099 91.8741 211.017L125.122 244.467C129.015 248.384 135.347 248.404 139.264 244.51L168.856 215.097C172.773 211.204 172.793 204.872 168.899 200.955L135.651 167.505C131.758 163.588 125.426 163.568 121.509 167.462L119.859 169.102L111.25 160.44C110.082 159.265 108.182 159.259 107.007 160.427L84.1468 183.149Z" fill="#AFE881"/>
<path fill-rule="evenodd" clip-rule="evenodd" d="M18.0164 118.638C13.8522 122.265 13.4174 128.582 17.0453 132.746L48.0258 168.307C51.6537 172.471 57.9704 172.906 62.1346 169.278L62.6604 168.82L56.6891 162.053C55.9583 161.225 56.0373 159.961 56.8655 159.23L84.2307 135.083C85.059 134.352 86.3228 134.431 87.0537 135.259L93.1946 142.218L93.5935 141.871C97.7577 138.243 98.1924 131.926 94.5646 127.762L63.584 92.2016C59.9562 88.0374 53.6395 87.6026 49.4753 91.2305L18.0164 118.638Z" fill="#AFE881"/>
<path d="M10.2215 -47C2.62395 -13.8482 -2.4569 64.1643 38 111" stroke="#AFE881" stroke-width="10"/>
</svg>
