<svg width="226" height="329" viewBox="0 0 226 329" fill="none" xmlns="http://www.w3.org/2000/svg">
<path d="M221 430C216.327 382.561 183.785 263.747 135 220" stroke="#AFE881" stroke-width="10"/>
<path fill-rule="evenodd" clip-rule="evenodd" d="M69.6958 173.595C68.8756 174.335 68.8106 175.599 69.5505 176.42L78.4011 186.23L76.7936 187.68C72.6929 191.38 72.3677 197.703 76.0672 201.804L107.659 236.822C111.359 240.923 117.682 241.248 121.783 237.549L152.762 209.601C156.863 205.901 157.188 199.578 153.488 195.477L121.896 160.459C118.197 156.358 111.874 156.033 107.773 159.732L106.045 161.291L97.8646 152.223C96.7548 150.992 94.8578 150.895 93.6276 152.005L69.6958 173.595Z" fill="#AFE881"/>
<path fill-rule="evenodd" clip-rule="evenodd" d="M28.4314 132.867C24.2672 136.495 23.8324 142.812 27.4603 146.976L58.4409 182.537C62.0687 186.701 68.3854 187.136 72.5496 183.508L73.0755 183.05L67.1042 176.283C66.3733 175.454 66.4523 174.191 67.2805 173.46L94.6458 149.312C95.474 148.582 96.7379 148.661 97.4687 149.489L103.61 156.448L104.009 156.101C108.173 152.473 108.607 146.156 104.98 141.992L73.9991 106.431C70.3712 102.267 64.0545 101.832 59.8903 105.46L28.4314 132.867Z" fill="#AFE881"/>
<path d="M8.22159 -42C0.624053 -8.84821 5.04304 78.6643 45.4999 125.5" stroke="#AFE881" stroke-width="10"/>
</svg>
