<svg width="342" height="303" viewBox="0 0 342 303" fill="none" xmlns="http://www.w3.org/2000/svg">
<g clip-path="url(#clip0_316_1538)">
<path d="M30.6826 241.294C31.0675 248.996 13.9382 254.284 8.22846 249.05C7.77051 248.636 7.34667 248.207 6.95693 247.784C-2.64538 237.56 7.89231 228.553 10.3672 226.664C10.679 226.42 10.8544 226.294 10.8544 226.294C1.11077 201.985 7.41 199.701 11.3415 205.062C15.2731 210.422 16.0574 222.589 18.5859 223.718C19.4559 224.031 20.3422 224.296 21.241 224.512C22.5929 224.893 23.8996 225.418 25.1384 226.08C34.5654 218.397 39.6905 216.016 42.219 220.388C44.7474 224.76 29.718 222.54 30.6485 241.294" fill="#FFE1D9"/>
<path d="M2.01679 228.602C-0.0878271 232.531 13.753 238.558 16.106 238.339C18.4591 238.12 9.43168 225.573 6.36245 226.06C5.50572 226.167 4.67932 226.446 3.93268 226.879C3.18604 227.312 2.53445 227.892 2.01679 228.582" fill="#FFE1D9"/>
<path d="M0 238.865C0.121795 243.319 15.1318 241.688 17.0757 240.325C19.0195 238.962 4.94002 232.535 2.51874 234.483C1.82747 235.001 1.24798 235.653 0.815157 236.4C0.382333 237.147 0.10508 237.974 0 238.831" fill="#FFE1D9"/>
<path d="M0.67708 247.321C2.29939 251.47 15.8722 244.853 17.2412 242.94C18.6102 241.026 3.1909 239.736 1.5686 242.38C1.09423 243.102 0.770379 243.912 0.616361 244.762C0.462343 245.612 0.481336 246.484 0.672203 247.326" fill="#FFE1D9"/>
<path d="M160.798 245.033C154.285 275.895 121.736 307.113 92.5933 319.241C72.5021 327.245 58.8368 307.464 46.6475 294.679C38.1901 285.263 30.3124 275.569 22.5954 265.618C15.7165 258.412 15.0783 251.377 23.7111 244.405C30.0737 239.537 37.5275 238.125 42.068 244.717C43.6123 246.956 46.3308 250.559 47.992 252.76C58.4713 266.392 70.5339 280.866 83.2834 291.485C82.2805 290.659 81.0543 290.151 79.7611 290.024C79.7173 290.024 80.3067 289.903 81.0814 289.586C97.6114 281.154 110.312 264.386 118.833 248.247C121.118 243.543 123.149 238.227 123.675 233.383C126.477 211.659 164.623 223.382 160.779 245.014" fill="#242363"/>
<path d="M260.149 143.965C257.474 146.916 254.697 149.754 251.901 152.476C244.881 159.292 237.773 165.373 231.927 170.543C225.973 175.821 221.374 180.164 219.606 183.406L212.269 196.897C212.269 196.897 183.486 182.476 161.977 156.487C154.962 148.001 148.721 138.279 144.507 127.422C127.378 83.2974 142.071 59.446 142.071 59.446C142.153 56.6037 141.795 53.7659 141.009 51.033C137.55 38.6569 126.482 27.7658 118.672 21.3343C116.047 19.1542 113.307 17.1162 110.463 15.2291C110.463 15.2291 138.778 6.28539 153.028 13.5543C158.017 16.1054 161.286 20.6333 161.008 28.2332C160.92 30.7064 163.61 22.1328 162.84 12.5854C162.509 8.59313 161.583 4.43045 159.585 0.842274C158.45 -1.19768 170.303 -0.131451 177.967 12.2543C181.07 17.2496 183.486 24.0997 184.076 33.3258C184.397 38.2723 191.608 30.4046 189.264 13.121C188.918 10.6031 188.417 8.10887 187.764 5.65248C185.523 -2.92604 239.614 30.6188 266.794 64.9621L266.838 65.0205C275.563 76.0577 281.502 87.1777 281.887 96.9977C282.579 114.413 272.465 130.372 260.149 143.965Z" fill="#603813"/>
<path d="M153.042 13.5299C141.365 14.998 129.859 17.6071 118.691 21.3197C116.066 19.1396 113.326 17.1016 110.482 15.2145C110.482 15.2145 138.797 6.27082 153.047 13.5397" fill="#754C24"/>
<path d="M177.986 12.2301C173.28 12.0889 168.189 12.196 162.854 12.5612C162.523 8.56889 161.593 4.41109 159.6 0.822911C158.465 -1.22191 170.318 -0.150818 177.986 12.2301Z" fill="#754C24"/>
<path d="M266.794 64.9621C245.67 42.1136 214.49 20.1707 200.128 15.4287C196.592 14.3151 192.96 13.5343 189.279 13.0966C188.932 10.5792 188.432 8.0851 187.783 5.62811C185.523 -2.92607 239.614 30.6188 266.794 64.9621Z" fill="#754C24"/>
<path d="M260.149 143.965C257.474 146.916 254.697 149.754 251.901 152.476C244.881 159.292 237.773 165.373 231.927 170.543C225.973 175.821 221.374 180.164 219.606 183.406L212.269 196.897C212.269 196.897 183.487 182.476 161.978 156.488C211.134 100.829 246.552 104.788 256.49 121.336C260.802 128.507 261.143 136.833 260.13 143.985" fill="#42210B"/>
<path d="M158.562 53.1167C113.742 72.2991 140.956 106.185 123.081 124.578C110.127 137.928 120.923 161.453 135.309 176.902C143.299 185.485 152.234 196.444 162.996 197.282C186.677 199.112 216.931 183.649 228.434 165.524C245.665 138.405 239.902 66.5979 197.595 51.3786C177.621 44.1876 158.562 53.1167 158.562 53.1167Z" fill="#FFE1D9"/>
<path d="M198.803 106.672C198.309 106.671 197.824 106.542 197.395 106.297C197.278 106.233 185.425 99.6511 173.558 103.439C172.837 103.669 172.055 103.603 171.383 103.257C170.711 102.91 170.204 102.311 169.974 101.591C169.744 100.871 169.81 100.09 170.157 99.4181C170.503 98.7466 171.103 98.2402 171.823 98.0104C186.122 93.4485 199.651 101.024 200.221 101.35C200.767 101.662 201.195 102.145 201.437 102.725C201.68 103.305 201.724 103.949 201.562 104.556C201.4 105.164 201.042 105.7 200.543 106.083C200.044 106.466 199.432 106.673 198.803 106.672Z" fill="#42210B"/>
<path d="M200.333 125.757C200.012 140.363 168.793 136.034 169.641 124.622C170.742 109.529 200.869 108.273 200.333 125.757Z" fill="white"/>
<path d="M197.775 131.959C199.031 129.555 199.395 126.785 198.805 124.139C198.215 121.492 196.708 119.139 194.55 117.495C194.017 117.088 193.461 116.713 192.884 116.37C192.304 116.02 191.7 115.703 191.091 115.396C189.859 114.817 188.567 114.377 187.238 114.082C184.479 113.473 181.615 113.53 178.883 114.247C180.132 113.433 181.523 112.861 182.985 112.563C184.47 112.239 185.997 112.145 187.51 112.285C189.039 112.433 190.54 112.793 191.968 113.356C192.681 113.634 193.374 113.96 194.044 114.33C194.723 114.696 195.375 115.113 195.992 115.577C197.272 116.524 198.345 117.722 199.147 119.097C199.948 120.472 200.461 121.996 200.655 123.576C201.035 126.687 199.973 129.958 197.766 131.94" fill="#42210B"/>
<path d="M192.84 125.839C190.838 138.352 172.169 135.694 173.743 123.123C175.745 110.61 194.414 113.269 192.84 125.839Z" fill="#A67C52"/>
<path d="M188.037 126.502C186.716 135.494 173.022 133.542 174.264 124.554C175.589 115.557 189.284 117.509 188.037 126.502Z" fill="#2D1508"/>
<g opacity="0.5">
<mask id="mask0_316_1538" style="mask-type:luminance" maskUnits="userSpaceOnUse" x="184" y="116" width="9" height="9">
<path d="M192.519 116.886H184.514V124.89H192.519V116.886Z" fill="white"/>
</mask>
<g mask="url(#mask0_316_1538)">
<path d="M192.504 121.224C192.439 122.013 192.141 122.765 191.648 123.384C191.155 124.004 190.489 124.464 189.735 124.705C188.98 124.947 188.171 124.959 187.41 124.741C186.648 124.523 185.969 124.084 185.457 123.48C184.945 122.876 184.624 122.133 184.534 121.347C184.445 120.56 184.59 119.765 184.953 119.061C185.316 118.358 185.879 117.777 186.572 117.393C187.265 117.01 188.056 116.84 188.845 116.906C189.37 116.949 189.88 117.094 190.348 117.335C190.816 117.575 191.231 117.905 191.571 118.307C191.911 118.708 192.168 119.172 192.328 119.672C192.488 120.173 192.548 120.7 192.504 121.224Z" fill="white"/>
</g>
</g>
<path d="M145.681 108.079C144.96 108.087 144.264 107.821 143.733 107.334C143.44 107.066 136.308 100.737 129.497 104.632C128.841 105.007 128.062 105.107 127.332 104.909C126.602 104.711 125.981 104.231 125.605 103.575C125.229 102.919 125.129 102.141 125.327 101.411C125.525 100.682 126.005 100.061 126.662 99.6851C137.112 93.7113 147.162 102.747 147.611 103.132C148.035 103.521 148.331 104.03 148.461 104.591C148.59 105.151 148.546 105.738 148.335 106.274C148.124 106.809 147.756 107.269 147.279 107.591C146.801 107.913 146.238 108.083 145.662 108.079" fill="#42210B"/>
<path d="M121.892 119.656C121.405 125.396 125.687 129.729 131.47 130.207C137.253 130.684 144.39 128.546 144.868 122.801C145.345 117.056 139.022 110.63 133.229 110.143C131.858 110.024 130.478 110.176 129.166 110.591C127.855 111.005 126.638 111.674 125.585 112.559C124.532 113.444 123.664 114.527 123.03 115.748C122.397 116.968 122.01 118.301 121.892 119.671" fill="white"/>
<path d="M121.576 121.365C121.288 119.291 121.508 117.177 122.219 115.206C122.606 114.19 123.168 113.249 123.88 112.426C124.603 111.605 125.46 110.91 126.413 110.372C128.311 109.274 130.533 108.876 132.693 109.247C133.733 109.422 134.741 109.75 135.684 110.221C136.61 110.676 137.46 111.273 138.203 111.988C136.458 111.065 134.537 110.522 132.566 110.396C130.684 110.287 128.814 110.758 127.207 111.745C125.613 112.71 124.317 114.099 123.466 115.757C122.565 117.431 122.087 119.369 121.556 121.346" fill="#42210B"/>
<path d="M140.8 122.003C140.553 123.717 139.803 125.32 138.645 126.609C137.487 127.898 135.973 128.815 134.294 129.244C132.615 129.673 130.846 129.596 129.211 129.021C127.576 128.447 126.148 127.401 125.108 126.016C124.067 124.631 123.46 122.969 123.364 121.239C123.268 119.51 123.687 117.791 124.568 116.299C125.449 114.808 126.753 113.611 128.314 112.859C129.876 112.107 131.625 111.835 133.341 112.076C134.484 112.236 135.584 112.621 136.578 113.207C137.571 113.793 138.44 114.57 139.133 115.492C139.825 116.414 140.33 117.464 140.616 118.581C140.902 119.699 140.964 120.861 140.8 122.003Z" fill="#A67C52"/>
<path d="M136.595 122.544C136.417 123.8 135.87 124.976 135.023 125.922C134.176 126.867 133.067 127.541 131.837 127.857C130.606 128.173 129.31 128.117 128.112 127.697C126.913 127.276 125.867 126.51 125.104 125.495C124.341 124.48 123.897 123.262 123.827 121.995C123.757 120.727 124.065 119.468 124.711 118.375C125.358 117.283 126.314 116.407 127.459 115.857C128.604 115.308 129.887 115.11 131.144 115.289C131.979 115.407 132.782 115.689 133.508 116.118C134.234 116.546 134.868 117.114 135.374 117.787C135.88 118.461 136.249 119.228 136.458 120.044C136.668 120.86 136.715 121.709 136.595 122.544Z" fill="#2D1508"/>
<g opacity="0.5">
<mask id="mask1_316_1538" style="mask-type:luminance" maskUnits="userSpaceOnUse" x="131" y="113" width="9" height="9">
<path d="M139.728 113.244H131.811V121.156H139.728V113.244Z" fill="white"/>
</mask>
<g mask="url(#mask1_316_1538)">
<path d="M139.713 117.529C139.648 118.308 139.353 119.05 138.866 119.661C138.378 120.273 137.721 120.726 136.975 120.964C136.23 121.202 135.431 121.214 134.679 120.998C133.928 120.783 133.257 120.349 132.751 119.752C132.246 119.155 131.929 118.422 131.841 117.645C131.752 116.869 131.896 116.083 132.255 115.388C132.613 114.693 133.169 114.12 133.853 113.741C134.538 113.362 135.319 113.194 136.098 113.259C136.616 113.302 137.121 113.446 137.583 113.684C138.045 113.922 138.456 114.249 138.791 114.645C139.127 115.042 139.381 115.5 139.539 115.995C139.698 116.49 139.757 117.011 139.713 117.529Z" fill="white"/>
</g>
</g>
<path d="M153.408 127.855C153.211 129.226 152.712 130.537 151.946 131.691C151.148 132.868 150.127 133.877 148.94 134.661C147.78 135.421 146.552 136.073 145.272 136.609C144.653 136.872 144.044 137.13 143.469 137.393C142.921 137.625 142.396 137.909 141.901 138.24C141.512 138.472 141.198 138.809 140.995 139.213C140.911 139.398 140.86 139.596 140.843 139.798C140.829 140.08 140.829 140.363 140.843 140.645C140.892 141.824 141.173 142.983 141.672 144.053C142.191 145.193 142.854 146.261 143.645 147.232C144.461 148.257 145.407 149.17 146.461 149.949C145.102 149.636 143.833 149.015 142.753 148.133C141.621 147.26 140.659 146.187 139.913 144.968C139.125 143.695 138.656 142.25 138.544 140.757C138.517 140.374 138.517 139.99 138.544 139.608C138.578 139.142 138.692 138.686 138.88 138.259C139.264 137.457 139.869 136.781 140.624 136.312C141.856 135.606 143.163 135.041 144.522 134.627C145.742 134.225 146.937 133.747 148.098 133.196C149.231 132.647 150.268 131.917 151.167 131.034C152.085 130.1 152.848 129.025 153.427 127.85" fill="#EDBBAB"/>
<path d="M139.689 157.783C140.922 160.032 142.364 162.252 142.364 162.252C145.887 164.066 149.773 165.065 153.734 165.173C160.112 165.271 173.826 161.278 173.826 161.278L174.313 159.112C177.596 158.873 179.672 158.654 179.672 158.654C179.672 158.654 178.089 160.504 175.58 162.924C174.498 163.966 173.246 165.115 171.872 166.269C167.488 169.954 161.885 173.674 156.823 174.058C153.598 174.307 150.724 173.202 148.249 171.449C147.477 170.896 146.743 170.292 146.052 169.643L145.779 169.385L145.511 169.122C140.469 164.068 137.692 156.984 137.692 156.984C138.345 157.297 139.019 157.563 139.709 157.783" fill="#751A25"/>
<path d="M153.734 165.159C160.111 165.256 173.826 161.264 173.826 161.264L174.313 159.097C177.596 158.858 179.672 158.639 179.672 158.639C179.672 158.639 178.088 160.489 175.579 162.909C174.498 163.951 173.246 165.1 171.872 166.254C167.487 169.939 161.885 173.659 156.823 174.044C153.598 174.292 150.724 173.187 148.249 171.434C147.386 170.795 146.561 170.105 145.779 169.37L145.511 169.107C147.071 167.49 148.831 166.078 150.748 164.905C151.729 165.045 152.719 165.123 153.71 165.139" fill="#AD3434"/>
<path d="M140.186 157.933C151.191 160.684 163.225 159.73 174.318 159.117L173.83 161.283C168.432 162.919 150.821 168.06 142.368 162.257C142.368 162.257 140.907 160.037 139.694 157.787L140.181 157.938" fill="white"/>
<path d="M226.67 152.52C200.133 130.343 253.046 107.047 255.092 124.768C257.138 142.49 234.436 158.99 226.67 152.52Z" fill="#FFE1D9"/>
<path d="M228.38 139.369C228.239 137.86 228.867 136.346 229.554 134.988C230.314 133.668 231.224 132.441 232.268 131.331C234.339 129.089 236.78 127.216 239.483 125.796C240.906 125.027 242.453 124.51 244.053 124.267C244.522 124.211 244.996 124.211 245.465 124.267C246.049 124.345 246.6 124.58 247.058 124.949C247.309 125.151 247.519 125.398 247.677 125.679C247.794 125.895 247.89 126.122 247.965 126.356C248.119 126.794 248.214 127.251 248.247 127.714C248.256 129.391 247.679 131.018 246.615 132.315C245.698 133.523 244.573 134.558 243.293 135.372C244.141 134.205 244.871 132.956 245.47 131.643C246.056 130.508 246.292 129.226 246.147 127.957C246.085 127.696 245.989 127.444 245.86 127.208C245.81 127.1 245.753 126.996 245.689 126.896C245.646 126.872 245.631 126.828 245.582 126.823C245.194 126.697 244.778 126.685 244.384 126.789C243.105 127.088 241.873 127.558 240.72 128.186C238.239 129.502 235.894 131.06 233.719 132.836C232.622 133.734 231.592 134.71 230.636 135.757C229.638 136.786 228.87 138.013 228.38 139.36" fill="#EDBBAB"/>
<path d="M135.377 72.4258C145.681 63.7353 150.451 79.9381 150.451 79.9381C150.451 79.9381 161.558 65.2641 186.897 66.9535C204.265 68.1122 219.421 80.7901 220.707 107.178C220.785 108.775 218.349 126.95 218.675 128.498C219.192 130.966 225.92 118.41 225.174 120.708C221.092 133.254 221.277 149.579 221.277 149.579C221.277 149.579 232.083 118.907 249.217 115.104C260.188 112.67 246.781 60.1423 198.214 45.4049C165.276 35.4145 141.945 57.0896 141.945 57.0896L135.377 72.4258Z" fill="#603813"/>
<path d="M147.289 59.8793L135.377 72.4258C135.377 72.4258 128.874 54.6893 104.641 57.0993C100.277 57.5661 95.9786 58.5232 91.8285 59.9523C89.7288 60.6534 91.0538 31.1739 110.278 29.7961C111.326 29.7483 112.376 29.8267 113.406 30.0297C124.64 32.0794 147.323 46.0573 147.289 59.8793Z" fill="#603813"/>
<path d="M113.406 30.0297C108.09 37.0552 105.528 51.1304 104.636 57.0993C100.272 57.5685 95.9744 58.5255 91.8236 59.9523C89.7239 60.6534 91.049 31.1739 110.273 29.7961C111.321 29.7483 112.371 29.8267 113.401 30.0297" fill="#754C24"/>
<path d="M234.153 409.048C234.153 409.048 150.573 428.435 147.435 402.509C146.144 391.842 153.876 360.581 157.179 329.28C159.561 306.573 162.538 282.123 165.198 261.285C168.954 231.839 172.091 209.595 172.091 209.595C174.425 208.976 176.505 206.021 179.589 205.831C183.589 205.578 187.014 204.341 191.038 204.926C198.034 205.938 204.805 209.195 204.805 209.195L211.022 259.829L234.153 409.048Z" fill="#E9CCFF"/>
<path d="M220.025 291.86C207.29 293.476 169.417 297.454 157.179 289.201C159.561 273.807 162.538 257.224 165.198 243.091C177.124 245.569 200.44 243.334 211.022 242.117L220.025 291.86Z" fill="#F2E0FF"/>
<path d="M185.547 216.873C194.268 217.496 199.247 210.826 199.247 207.54V190.071H178.23L177.835 205.938C177.835 209.224 180.232 216.493 185.547 216.873Z" fill="#FFE1D9"/>
<path d="M177.426 205.666L167.02 455.796C167.02 455.796 150.256 453.06 139.626 450.192C135.09 448.98 124.036 447.086 124.036 447.086L127.446 431.765L131.212 405.596L137.75 360.157L130.93 244.546L130.247 232.983L129.634 222.633C129.692 222.277 139.353 217.915 141.896 217C149.545 214.21 164.818 209.784 165.792 209.336C165.893 209.287 165.997 209.245 166.104 209.21L177.426 205.666Z" fill="#242363"/>
<path d="M271.632 448.951C264.547 450.934 257.318 452.36 250.011 453.216L249.217 453.308L203.139 459.53L200.051 206.761C211.167 208.019 222.19 209.994 233.052 212.672C235.819 213.363 257.494 219.702 257.962 222.633L265.43 238.212L265.001 242.317L251.735 368.901L271.632 448.951Z" fill="#242363"/>
<path d="M271.632 448.951C264.547 450.934 257.318 452.36 250.011 453.216C245.758 430.786 236.37 405.805 235.205 366.691C233.627 313.988 245.436 252.516 264.977 242.292L251.711 368.877L271.632 448.951Z" fill="#1D1D51"/>
<path d="M199.817 205.373C200.791 203.192 220.585 204.453 220.4 208.781C219.855 221.586 206.632 255.233 206.632 255.233L214.812 259.459L201.892 332.78C201.892 332.78 194.131 218.368 199.817 205.378" fill="#5857BF"/>
<path d="M177.835 205.938C178.99 222.526 172.316 331.841 172.316 331.841L161.076 257.701L166.596 255.657C166.596 255.657 158.757 215.198 160.394 209.614C161.534 205.719 177.694 203.772 177.84 205.938" fill="#5857BF"/>
<path d="M264.534 224.205C284.021 238.86 334.965 288.169 341.406 310.137C345.099 325.517 330.688 336.656 320.691 345.254C306.709 356.651 291.981 366.759 277.049 376.696C267.725 385.031 262.171 380.975 257.431 374.928C253.363 369.743 248.754 363.575 255.769 357.109C274.073 342.435 294.388 328.292 309.086 310.044C309.086 309.674 308.205 311.631 308.019 313.053C307.664 315.294 307.85 317.587 308.56 319.742C308.643 320.005 308.477 319.694 308.185 319.294C307.44 318.233 306.543 317.094 305.71 316.076C286.798 294.854 264.412 282.38 241.125 266.037C217.18 250.944 241.305 207.886 264.534 224.205Z" fill="#242363"/>
<path d="M142.408 361.52C140.707 379.938 134.988 395.527 131.202 405.596L137.74 360.157L130.92 244.546C132.727 251.362 137.643 263.427 139.938 283.456C143.099 311.11 145.862 323.691 142.374 361.52" fill="#292972"/>
<path d="M219.952 260.915L224.936 252.828L236.141 264.649L219.952 260.915Z" fill="#E9CCFF"/>
<path d="M218.709 259.673L238.63 263.091L238.011 270.248L216.839 266.514L218.709 259.673Z" fill="#5857BF"/>
</g>
<defs>
<clipPath id="clip0_316_1538">
<rect width="342" height="716" fill="white"/>
</clipPath>
</defs>
</svg>
