<svg width="218" height="290" viewBox="0 0 218 290" fill="none" xmlns="http://www.w3.org/2000/svg">
<path d="M126.5 70.5H103L139.5 -2H197.5L126.5 70.5Z" fill="#FF9432"/>
<g clip-path="url(#clip0_316_2024)">
<path d="M111.37 63.5133C113.759 63.5133 116.094 64.2214 118.08 65.5485C120.066 66.8756 121.614 68.7619 122.528 70.9688C123.442 73.1756 123.681 75.604 123.215 77.9468C122.749 80.2895 121.599 82.4415 119.91 84.1305C118.221 85.8196 116.069 86.9699 113.726 87.4359C111.383 87.9019 108.955 87.6627 106.748 86.7486C104.541 85.8345 102.655 84.2865 101.328 82.3004C100.001 80.3143 99.2925 77.9792 99.2925 75.5905C99.2958 72.3884 100.569 69.3185 102.834 67.0543C105.098 64.7901 108.168 63.5166 111.37 63.5133ZM111.37 56.0001C107.495 56.0001 103.708 57.149 100.486 59.3016C97.2644 61.4543 94.7534 64.5139 93.2706 68.0936C91.7879 71.6733 91.3998 75.6123 92.1557 79.4125C92.9116 83.2127 94.7775 86.7034 97.5173 89.4432C100.257 92.1829 103.748 94.0488 107.548 94.8047C111.348 95.5606 115.287 95.1725 118.867 93.6898C122.447 92.207 125.506 89.696 127.659 86.4744C129.811 83.2528 130.96 79.4651 130.96 75.5905C130.96 70.3948 128.897 65.4119 125.223 61.738C121.549 58.0641 116.566 56.0001 111.37 56.0001Z" fill="#FF790B"/>
<path d="M114.513 289.953C171.667 289.953 218 243.62 218 186.466C218 129.311 171.667 82.9784 114.513 82.9784C57.3582 82.9784 11.0254 129.311 11.0254 186.466C11.0254 243.62 57.3582 289.953 114.513 289.953Z" fill="#FF790B"/>
<path d="M103.487 282.302C160.642 282.302 206.974 235.969 206.974 178.815C206.974 121.66 160.642 75.3275 103.487 75.3275C46.3328 75.3275 0 121.66 0 178.815C0 235.969 46.3328 282.302 103.487 282.302Z" fill="white"/>
<path d="M103.487 282.302C160.642 282.302 206.974 235.969 206.974 178.815C206.974 121.66 160.642 75.3275 103.487 75.3275C46.3328 75.3275 0 121.66 0 178.815C0 235.969 46.3328 282.302 103.487 282.302Z" fill="#FFB546" fill-opacity="0.3"/>
<path d="M103.487 274.595C50.67 274.595 7.69482 231.632 7.69482 178.802C7.69482 125.972 50.6575 83.0098 103.487 83.0098C156.317 83.0098 199.28 125.979 199.28 178.802C199.28 231.626 156.292 274.595 103.487 274.595ZM103.487 86.7663C52.7424 86.7663 11.4514 128.051 11.4514 178.802C11.4514 229.554 52.7298 270.838 103.487 270.838C154.245 270.838 195.523 229.56 195.523 178.802C195.523 128.045 154.226 86.7663 103.487 86.7663Z" fill="#FF9432"/>
<path d="M115.878 227.218C111.439 229.923 108.139 233.805 107.056 238.187C106.531 240.21 106.561 242.337 107.144 244.343C107.727 246.35 108.841 248.162 110.368 249.589C114.807 246.884 118.1 243.002 119.183 238.619C119.709 236.597 119.68 234.471 119.098 232.464C118.516 230.458 117.404 228.645 115.878 227.218Z" fill="#FF9432"/>
<path d="M140.064 251.93C139.691 251.547 139.298 251.183 138.887 250.841C137.565 249.762 136.088 248.89 134.504 248.255C132.071 247.301 129.491 246.778 126.878 246.708C121.728 246.545 116.635 247.829 112.177 250.415C111.896 250.578 111.614 250.747 111.345 250.922C111.906 251.502 112.516 252.034 113.167 252.512C113.852 253.015 114.574 253.464 115.327 253.858C115.84 254.121 116.379 254.372 116.936 254.597C118.404 255.184 119.932 255.604 121.494 255.85C122.507 256.01 123.53 256.108 124.555 256.144C126.303 256.203 128.051 256.092 129.777 255.812C131.467 255.551 133.13 255.131 134.742 254.56C136.617 253.893 138.41 253.017 140.089 251.949L140.064 251.93Z" fill="#FF9432"/>
<path d="M133.127 229.679C133.127 226.11 131.161 223.099 128.018 221.139C124.887 223.8 122.959 227.243 122.971 230.818C122.984 234.393 124.95 237.405 128.087 239.358C131.248 236.697 133.127 233.273 133.127 229.679Z" fill="#FF9432"/>
<path d="M141.184 235.094C136.74 235.558 132.545 237.372 129.163 240.291C132.225 242.32 136.495 243.309 141.215 242.795C145.659 242.334 149.854 240.523 153.237 237.605C150.181 235.558 145.905 234.562 141.184 235.094Z" fill="#FF9432"/>
<path d="M135.224 222.184C135.9 225.177 138.185 227.481 141.316 228.777C143.564 226.204 144.615 223.105 143.933 220.118C143.25 217.132 140.971 214.815 137.847 213.519C135.631 216.086 134.542 219.192 135.224 222.184Z" fill="#FF9432"/>
<path d="M142.424 229.441C145.932 230.884 149.813 231.154 153.487 230.211C157.21 229.397 160.574 227.411 163.085 224.545C159.58 223.099 155.7 222.829 152.029 223.775C148.303 224.588 144.937 226.573 142.424 229.441Z" fill="#FF9432"/>
<path d="M144.978 213.1C145.73 215.573 147.796 217.414 150.513 218.39C152.26 216.168 152.973 213.557 152.228 211.09C151.483 208.623 149.417 206.776 146.694 205.8C144.947 208.016 144.233 210.633 144.978 213.1Z" fill="#FF9432"/>
<path d="M160.881 219.167C163.953 218.388 166.687 216.629 168.67 214.158C165.647 213.074 162.358 212.98 159.279 213.889C156.204 214.679 153.472 216.451 151.496 218.935C154.521 220.006 157.808 220.087 160.881 219.167Z" fill="#FF9432"/>
<path d="M157.044 211.359C159.817 209.857 161.971 207.603 162.835 204.979C163.255 203.795 163.347 202.518 163.103 201.285C162.858 200.052 162.285 198.908 161.445 197.973C158.671 199.482 156.511 201.73 155.653 204.36C155.233 205.543 155.14 206.819 155.384 208.051C155.629 209.283 156.202 210.426 157.044 211.359Z" fill="#FF9432"/>
<path d="M84.5226 227.218C88.9553 229.923 92.2612 233.805 93.3381 238.187C93.8655 240.209 93.8365 242.336 93.2546 244.343C92.6727 246.35 91.5593 248.162 90.0321 249.589C85.5931 246.884 82.2935 243.002 81.2166 238.619C80.6892 236.598 80.7182 234.471 81.3001 232.464C81.882 230.457 82.9954 228.644 84.5226 227.218Z" fill="#FF9432"/>
<path d="M60.3369 251.93C60.7 251.555 61.0943 251.191 61.5075 250.841C62.8397 249.761 64.3281 248.889 65.9216 248.255C68.3525 247.301 70.9308 246.778 73.5412 246.709C78.6937 246.544 83.789 247.828 88.248 250.415C88.5297 250.578 88.8052 250.747 89.0807 250.922C88.5182 251.504 87.9066 252.036 87.2526 252.512C86.5704 253.016 85.8504 253.466 85.0988 253.859C84.5855 254.121 84.0471 254.372 83.4899 254.597C82.0202 255.185 80.4892 255.605 78.9256 255.85C77.9142 256.01 76.8936 256.108 75.8701 256.144C74.1229 256.204 72.3741 256.093 70.6485 255.812C68.9581 255.551 67.2957 255.131 65.6835 254.56C63.8087 253.893 62.0154 253.018 60.3369 251.949V251.93Z" fill="#FF9432"/>
<path d="M67.2613 229.679C67.2613 226.11 69.2337 223.099 72.3767 221.139C75.5072 223.8 77.4292 227.243 77.4167 230.818C77.4042 234.393 75.4445 237.405 72.3015 239.358C69.1773 236.697 67.2488 233.273 67.2613 229.679Z" fill="#FF9432"/>
<path d="M59.2096 235.094C63.6555 235.557 67.853 237.37 71.2368 240.291C68.1689 242.32 63.899 243.309 59.1845 242.795C54.74 242.332 50.5433 240.521 47.1572 237.605C50.2188 235.558 54.4888 234.562 59.2096 235.094Z" fill="#FF9432"/>
<path d="M65.1764 222.184C64.494 225.177 62.2087 227.481 59.0845 228.777C56.8368 226.204 55.7847 223.105 56.4609 220.118C57.1371 217.132 59.4223 214.815 62.5528 213.519C64.8005 216.086 65.8588 219.192 65.1764 222.184Z" fill="#FF9432"/>
<path d="M57.9951 229.441C54.4871 230.884 50.6063 231.155 46.9321 230.211C43.2106 229.394 39.8477 227.408 37.334 224.545C40.8412 223.098 44.7232 222.828 48.397 223.775C52.1198 224.589 55.4837 226.575 57.9951 229.441Z" fill="#FF9432"/>
<path d="M55.4156 213.1C54.6706 215.573 52.6044 217.414 49.8872 218.39C48.1341 216.168 47.4268 213.557 48.1718 211.09C48.9169 208.623 50.9831 206.776 53.7003 205.8C55.4534 208.016 56.167 210.633 55.4156 213.1Z" fill="#FF9432"/>
<path d="M39.5129 219.167C36.4425 218.389 33.7097 216.631 31.7305 214.158C34.7528 213.073 38.0423 212.978 41.1219 213.889C44.1971 214.681 46.9313 216.452 48.9108 218.935C45.8822 220.008 42.5907 220.089 39.5129 219.167Z" fill="#FF9432"/>
<path d="M43.357 211.359C40.5772 209.857 38.4232 207.603 37.5592 204.979C37.1406 203.794 37.049 202.519 37.2936 201.286C37.5381 200.053 38.11 198.909 38.9493 197.973C41.7291 199.482 43.8828 201.73 44.7468 204.36C45.1676 205.543 45.2605 206.819 45.0158 208.051C44.7711 209.283 44.1981 210.426 43.357 211.359Z" fill="#FF9432"/>
<path d="M103.625 98.7247C104.536 100.218 105.623 101.597 106.862 102.832C105.623 104.064 104.536 105.441 103.625 106.933C102.716 105.44 101.629 104.063 100.388 102.832C101.627 101.597 102.714 100.218 103.625 98.7247ZM103.625 88.1687C102.329 95.1497 98.6162 100.691 93.9268 102.832C98.6413 104.961 102.329 110.508 103.625 117.495C104.921 110.508 108.634 104.973 113.323 102.832C108.609 100.697 104.921 95.1497 103.625 88.1687Z" fill="#FF9432"/>
<path d="M144.659 99.3757C141.285 103.79 136.746 106.363 132.695 106.188C135.237 109.318 135.825 114.521 134.291 119.862C137.666 115.435 142.205 112.862 146.25 113.05C143.708 109.888 143.094 104.71 144.659 99.3757Z" fill="#FF9432"/>
<path d="M64.0059 99.3757C67.3743 103.79 71.9135 106.363 75.9644 106.188C73.4224 109.318 72.8024 114.521 74.3677 119.862C70.993 115.435 66.4538 112.862 62.4092 113.05C64.9511 109.888 65.5649 104.71 64.0059 99.3757Z" fill="#FF9432"/>
<path d="M37.5156 123.08C42.468 125.584 47.671 125.979 51.246 124.069C50.3131 128.014 51.991 132.953 55.71 137.092C50.7576 134.587 45.5546 134.193 41.9796 136.103C42.9062 132.177 41.2284 127.237 37.5156 123.08Z" fill="#FF9432"/>
<path d="M169.44 123.08C164.488 125.584 159.285 125.979 155.71 124.069C156.642 128.014 154.965 132.953 151.246 137.092C156.204 134.587 161.407 134.193 164.976 136.103C164.062 132.177 165.74 127.237 169.44 123.08Z" fill="#FF9432"/>
<g filter="url(#filter0_i_316_2024)">
<path d="M106.745 141.386L112.8 160.031C113.02 160.715 113.451 161.312 114.031 161.735C114.611 162.158 115.31 162.386 116.027 162.386H135.604C136.321 162.387 137.02 162.614 137.6 163.037C138.181 163.46 138.613 164.056 138.834 164.739C139.056 165.423 139.055 166.159 138.833 166.843C138.611 167.526 138.179 168.122 137.598 168.544L121.769 180.082C121.187 180.505 120.753 181.101 120.53 181.786C120.307 182.47 120.307 183.208 120.53 183.893L126.578 202.538C126.801 203.222 126.802 203.959 126.581 204.644C126.36 205.328 125.928 205.925 125.347 206.349C124.766 206.772 124.066 207 123.348 207C122.629 207 121.93 206.772 121.349 206.349L105.512 194.825C104.932 194.401 104.232 194.172 103.514 194.172C102.796 194.172 102.096 194.401 101.516 194.825L85.6797 206.349C85.0989 206.772 84.3991 207 83.6807 207C82.9623 207 82.2622 206.772 81.6813 206.349C81.1004 205.925 80.6686 205.328 80.4475 204.644C80.2264 203.959 80.2273 203.222 80.4506 202.538L86.4989 183.893C86.718 183.206 86.714 182.467 86.4874 181.782C86.2609 181.098 85.8234 180.502 85.238 180.082L69.4017 168.559C68.821 168.136 68.3888 167.541 68.1668 166.857C67.9448 166.174 67.9443 165.437 68.1658 164.754C68.3872 164.07 68.8193 163.474 69.3996 163.051C69.9799 162.629 70.6786 162.401 71.3962 162.4H90.9726C91.6909 162.401 92.3912 162.173 92.9723 161.75C93.5534 161.327 93.9854 160.73 94.2068 160.046L100.255 141.4C100.469 140.706 100.898 140.099 101.481 139.667C102.064 139.235 102.77 139.002 103.495 139C104.22 138.998 104.926 139.229 105.511 139.658C106.096 140.088 106.528 140.693 106.745 141.386Z" fill="#FF9432"/>
</g>
</g>
<path d="M100.5 70.5H122L75.5 -5H23.5L100.5 70.5Z" fill="#FFB546"/>
<defs>
<filter id="filter0_i_316_2024" x="68" y="139" width="71" height="72" filterUnits="userSpaceOnUse" color-interpolation-filters="sRGB">
<feFlood flood-opacity="0" result="BackgroundImageFix"/>
<feBlend mode="normal" in="SourceGraphic" in2="BackgroundImageFix" result="shape"/>
<feColorMatrix in="SourceAlpha" type="matrix" values="0 0 0 0 0 0 0 0 0 0 0 0 0 0 0 0 0 0 127 0" result="hardAlpha"/>
<feOffset dy="4"/>
<feGaussianBlur stdDeviation="2"/>
<feComposite in2="hardAlpha" operator="arithmetic" k2="-1" k3="1"/>
<feColorMatrix type="matrix" values="0 0 0 0 0 0 0 0 0 0 0 0 0 0 0 0 0 0 0.25 0"/>
<feBlend mode="normal" in2="shape" result="effect1_innerShadow_316_2024"/>
</filter>
<clipPath id="clip0_316_2024">
<rect width="218" height="233.953" fill="white" transform="translate(0 56)"/>
</clipPath>
</defs>
</svg>
